<svg width="381" height="118" viewBox="0 0 381 118" fill="none" xmlns="http://www.w3.org/2000/svg">
<g clip-path="url(#clip0_1_4)">
<path d="M11.9646 29.3958C13.9584 29.3958 15.5746 27.7795 15.5746 25.7858C15.5746 23.792 13.9584 22.1758 11.9646 22.1758C9.97085 22.1758 8.35459 23.792 8.35459 25.7858C8.35459 27.7795 9.97085 29.3958 11.9646 29.3958Z" fill="url(#paint0_linear_1_4)"/>
<path d="M19.5972 35.1374C21.7429 35.1374 23.4822 33.398 23.4822 31.2524C23.4822 29.1067 21.7429 27.3673 19.5972 27.3673C17.4515 27.3673 15.7121 29.1067 15.7121 31.2524C15.7121 33.398 17.4515 35.1374 19.5972 35.1374Z" fill="url(#paint1_linear_1_4)"/>
<path d="M28.2612 34.1404C29.9322 34.1404 31.2867 32.7858 31.2867 31.1148C31.2867 29.4439 29.9322 28.0893 28.2612 28.0893C26.5903 28.0893 25.2357 29.4439 25.2357 31.1148C25.2357 32.7858 26.5903 34.1404 28.2612 34.1404Z" fill="url(#paint2_linear_1_4)"/>
<path d="M26.9547 11.6896C28.5497 11.6896 29.8427 10.3966 29.8427 8.80155C29.8427 7.20655 28.5497 5.91354 26.9547 5.91354C25.3597 5.91354 24.0667 7.20655 24.0667 8.80155C24.0667 10.3966 25.3597 11.6896 26.9547 11.6896Z" fill="url(#paint3_linear_1_4)"/>
<path d="M35.1718 25.5107C36.3681 25.5107 37.3378 24.541 37.3378 23.3447C37.3378 22.1485 36.3681 21.1787 35.1718 21.1787C33.9756 21.1787 33.0058 22.1485 33.0058 23.3447C33.0058 24.541 33.9756 25.5107 35.1718 25.5107Z" fill="url(#paint4_linear_1_4)"/>
<path d="M43.0794 25.9233C44.3516 25.9233 45.383 24.892 45.383 23.6198C45.383 22.3476 44.3516 21.3162 43.0794 21.3162C41.8072 21.3162 40.7759 22.3476 40.7759 23.6198C40.7759 24.892 41.8072 25.9233 43.0794 25.9233Z" fill="url(#paint5_linear_1_4)"/>
<path d="M45.6924 7.49507C47.7621 7.49507 49.4399 5.81724 49.4399 3.74753C49.4399 1.67783 47.7621 0 45.6924 0C43.6227 0 41.9449 1.67783 41.9449 3.74753C41.9449 5.81724 43.6227 7.49507 45.6924 7.49507Z" fill="url(#paint6_linear_1_4)"/>
<path d="M48.7179 17.5687C50.142 17.5687 51.2965 16.4142 51.2965 14.9901C51.2965 13.566 50.142 12.4116 48.7179 12.4116C47.2938 12.4116 46.1394 13.566 46.1394 14.9901C46.1394 16.4142 47.2938 17.5687 48.7179 17.5687Z" fill="url(#paint7_linear_1_4)"/>
<path d="M60.6825 37.3034C62.8282 37.3034 64.5676 35.564 64.5676 33.4184C64.5676 31.2727 62.8282 29.5333 60.6825 29.5333C58.5369 29.5333 56.7975 31.2727 56.7975 33.4184C56.7975 35.564 58.5369 37.3034 60.6825 37.3034Z" fill="url(#paint8_linear_1_4)"/>
<path d="M52.878 35.8594C54.2262 35.8594 55.3191 34.7665 55.3191 33.4184C55.3191 32.0702 54.2262 30.9773 52.878 30.9773C51.5299 30.9773 50.437 32.0702 50.437 33.4184C50.437 34.7665 51.5299 35.8594 52.878 35.8594Z" fill="url(#paint9_linear_1_4)"/>
<path d="M61.2326 63.6737C62.9795 63.6737 64.3957 62.2575 64.3957 60.5106C64.3957 58.7637 62.9795 57.3476 61.2326 57.3476C59.4857 57.3476 58.0696 58.7637 58.0696 60.5106C58.0696 62.2575 59.4857 63.6737 61.2326 63.6737Z" fill="url(#paint10_linear_1_4)"/>
<path d="M70.1717 50.4026C71.197 50.4026 72.0283 49.5714 72.0283 48.546C72.0283 47.5207 71.197 46.6895 70.1717 46.6895C69.1463 46.6895 68.3151 47.5207 68.3151 48.546C68.3151 49.5714 69.1463 50.4026 70.1717 50.4026Z" fill="url(#paint11_linear_1_4)"/>
<path d="M91.6255 48.271C93.5433 48.271 95.0979 46.7163 95.0979 44.7985C95.0979 42.8807 93.5433 41.326 91.6255 41.326C89.7077 41.326 88.153 42.8807 88.153 44.7985C88.153 46.7163 89.7077 48.271 91.6255 48.271Z" fill="url(#paint12_linear_1_4)"/>
<path d="M86.2964 42.8044C87.4926 42.8044 88.4624 41.8346 88.4624 40.6384C88.4624 39.4421 87.4926 38.4724 86.2964 38.4724C85.1001 38.4724 84.1304 39.4421 84.1304 40.6384C84.1304 41.8346 85.1001 42.8044 86.2964 42.8044Z" fill="url(#paint13_linear_1_4)"/>
<path d="M70.0342 41.3604C71.5532 41.3604 72.7847 40.129 72.7847 38.6099C72.7847 37.0909 71.5532 35.8594 70.0342 35.8594C68.5151 35.8594 67.2837 37.0909 67.2837 38.6099C67.2837 40.129 68.5151 41.3604 70.0342 41.3604Z" fill="url(#paint14_linear_1_4)"/>
<path d="M82.4113 37.8879C84.2342 37.8879 85.7119 36.4102 85.7119 34.5873C85.7119 32.7645 84.2342 31.2867 82.4113 31.2867C80.5885 31.2867 79.1108 32.7645 79.1108 34.5873C79.1108 36.4102 80.5885 37.8879 82.4113 37.8879Z" fill="url(#paint15_linear_1_4)"/>
<path d="M102.146 43.492C106.616 43.492 110.226 39.882 110.226 35.4125C110.226 30.9429 106.616 27.3329 102.146 27.3329C99.4643 27.3329 97.0577 28.6394 95.6137 30.6679L93.1726 29.2583C93.4133 28.7082 93.5164 28.0893 93.5164 27.4705C93.5164 24.8575 91.3848 22.7259 88.7718 22.7259C86.5371 22.7259 84.6805 24.273 84.1648 26.3359L80.3141 25.9921C80.3141 25.9577 80.3141 25.9233 80.3141 25.8889C80.3141 22.7946 78.2856 20.1817 75.5008 19.3222L76.5322 15.5746C76.876 15.6434 77.2198 15.6778 77.5636 15.6778C80.4172 15.6778 82.7552 13.3399 82.7552 10.4862C82.7552 7.6326 80.4172 5.29469 77.5636 5.29469C74.71 5.29469 72.3721 7.6326 72.3721 10.4862C72.3721 12.6522 73.7129 14.5088 75.6039 15.2996L74.5725 19.0815C74.1943 19.0127 73.8161 18.9783 73.4379 18.9783C70.2061 18.9783 67.4556 21.2131 66.7336 24.2386L63.2267 23.4479C63.2611 23.1728 63.2955 22.8978 63.2955 22.5884C63.2955 19.0815 60.545 16.1935 57.0725 15.9872L56.9006 13.1336C59.3073 12.6866 61.1295 10.5894 61.1295 8.04517C61.1295 5.19155 58.7916 2.85364 55.9379 2.85364C53.0843 2.85364 50.7464 5.19155 50.7464 8.04517C50.7464 10.8988 53.0499 13.2367 55.9036 13.2367L56.0755 15.9872C52.6717 16.2622 50.0244 19.1159 50.0244 22.5884C50.0244 23.9636 50.437 25.2357 51.159 26.3015L46.8957 29.8771C45.4174 28.3987 43.3545 27.4705 41.0853 27.4705C40.8447 27.4705 40.604 27.4705 40.3977 27.5048L38.8506 18.497C41.4635 17.8438 43.4232 15.4715 43.4232 12.6179C43.4232 9.28289 40.7071 6.56679 37.3722 6.56679C34.0372 6.56679 31.3211 9.28289 31.3211 12.6179C31.3211 15.9528 34.0372 18.6689 37.3722 18.6689C37.5441 18.6689 37.716 18.6689 37.8879 18.6345L39.435 27.608C37.8191 27.9518 36.3408 28.7769 35.2406 29.9115L27.2642 22.4508C27.9862 21.4194 28.4331 20.1473 28.4331 18.7721C28.4331 15.2652 25.5795 12.4459 22.107 12.4459C18.6345 12.4459 15.7809 15.2996 15.7809 18.7721C15.7809 22.2789 18.6345 25.0982 22.107 25.0982C23.8948 25.0982 25.4763 24.3762 26.6453 23.1728L34.6217 30.5991C33.5559 31.9744 32.937 33.7278 32.937 35.5844C32.937 35.6531 32.937 35.6875 32.937 35.7563L14.0618 36.8565C13.5117 33.4871 10.5894 30.9429 7.08249 30.9429C3.16306 30.9429 0 34.106 0 38.0254C0 41.9449 3.16306 45.1079 7.08249 45.1079C11.0019 45.1079 14.165 41.9449 14.165 38.0254C14.165 37.9567 14.165 37.8879 14.165 37.8192L32.9714 36.8565C33.1433 38.1286 33.6247 39.2632 34.2779 40.2946L31.6993 42.2199C30.6335 40.8791 28.9488 40.0195 27.0923 40.0195C23.8261 40.0195 21.1787 42.6669 21.1787 45.9331C21.1787 46.4832 21.2475 47.0333 21.4194 47.549L15.3683 50.0588C14.4057 48.4429 12.6522 47.3771 10.6581 47.3771C7.63259 47.3771 5.19154 49.8181 5.19154 52.8437C5.19154 55.8692 7.63259 58.3102 10.6581 58.3102C13.6837 58.3102 16.1247 55.8692 16.1247 52.8437C16.1247 52.156 15.9872 51.5372 15.7809 50.9183L21.7288 48.4429C22.6915 50.437 24.72 51.8122 27.0579 51.8122C30.3241 51.8122 32.9714 49.1649 32.9714 45.8987C32.9714 44.8329 32.6964 43.8702 32.215 43.0107L34.828 41.051C36.1345 42.5981 38.0254 43.6295 40.157 43.8358L40.2258 48.3397H40.1914C36.3064 48.3397 33.1433 51.5028 33.1433 55.3879C33.1433 55.8692 33.1777 56.3505 33.2808 56.8319L32.0431 57.1757C31.3899 55.216 29.5677 53.8063 27.4017 53.8063C24.6856 53.8063 22.5196 56.0067 22.5196 58.6884C22.5196 61.4045 24.72 63.5705 27.4017 63.5705C30.0834 63.5705 32.2838 61.3702 32.2838 58.6884C32.2838 58.4822 32.2838 58.3102 32.2494 58.1383L33.5559 57.7602C34.381 60.0981 36.4095 61.8515 38.9193 62.2984L38.7474 64.602C38.6099 64.602 38.4724 64.602 38.3349 64.602C34.8967 64.602 32.1463 67.3868 32.1463 70.7906C32.1463 72.6815 33.0058 74.3662 34.3123 75.5008L34.1404 75.879L32.7651 77.873C32.2494 77.6668 31.6993 77.5292 31.1148 77.5292C28.8113 77.5292 26.9203 79.3858 26.9203 81.7237C26.9203 84.0273 28.7769 85.9182 31.1148 85.9182C33.4527 85.9182 35.3093 84.0616 35.3093 81.7237C35.3093 80.3485 34.6561 79.1451 33.6247 78.3888L34.9999 76.3947L35.1374 76.0852C36.0657 76.6697 37.1659 76.9792 38.3349 76.9792C41.773 76.9792 44.5234 74.1943 44.5234 70.7906C44.5234 67.8338 42.4606 65.3927 39.7101 64.7395L39.882 62.4016C39.9851 62.4016 40.0883 62.4016 40.1914 62.4016C42.4262 62.4016 44.4203 61.3702 45.7268 59.7543L47.2395 60.9232C46.8957 61.5421 46.6894 62.2641 46.6894 62.9861C46.6894 65.3584 48.6148 67.3181 51.0215 67.3181C53.3938 67.3181 55.3535 65.3927 55.3535 62.9861C55.3535 60.6138 53.4281 58.6541 51.0215 58.6541C49.7494 58.6541 48.5804 59.2042 47.7896 60.0981L46.2769 58.9291C46.8957 57.8633 47.2739 56.66 47.2739 55.3535C47.2739 51.8122 44.661 48.8555 41.2229 48.3741L41.1541 43.8358C43.7671 43.8015 46.105 42.5637 47.5834 40.6384L50.4714 42.5981C49.715 43.8014 49.3024 45.2111 49.3024 46.7238C49.3024 51.0215 52.7749 54.494 57.0725 54.494C59.5823 54.494 61.8171 53.2906 63.2611 51.434L67.4212 54.1158C66.9055 54.9409 66.5961 55.9036 66.5961 56.935C66.5961 59.7886 68.934 62.1265 71.7876 62.1265C74.6412 62.1265 76.9791 59.7886 76.9791 56.935C76.9791 54.0814 74.6412 51.7435 71.7876 51.7435C70.3092 51.7435 69.0027 52.3623 68.0401 53.325L63.8112 50.6089C64.4988 49.4743 64.877 48.1335 64.877 46.6895C64.877 46.38 64.8426 46.105 64.8426 45.7956L72.9222 44.5922C73.3691 46.8614 75.3632 48.546 77.7355 48.546C78.8701 48.546 79.9359 48.1678 80.7611 47.5146L83.8897 51.5372C82.4113 52.7405 81.4831 54.5971 81.4831 56.6256C81.4831 60.27 84.4398 63.2611 88.1186 63.2611C91.7974 63.2611 94.7541 60.3043 94.7541 56.6256C94.7541 55.7317 94.5822 54.8721 94.2728 54.1158L96.7826 52.5686C97.6421 53.8063 99.0518 54.5971 100.668 54.5971C103.281 54.5971 105.412 52.4655 105.412 49.8525C105.412 47.2396 103.281 45.1079 100.668 45.1079C98.0547 45.1079 95.9231 47.2396 95.9231 49.8525C95.9231 50.5058 96.0606 51.159 96.3013 51.7091L93.7227 53.3594C92.5537 51.434 90.4565 50.1276 88.0498 50.1276C86.7777 50.1276 85.6088 50.4714 84.6117 51.0902L81.4143 46.9645C82.1363 46.105 82.5833 45.0048 82.5833 43.8014C82.5833 41.0853 80.3829 38.9193 77.7011 38.9193C75.0194 38.9193 72.819 41.0854 72.819 43.7671L64.6707 44.9704C64.2925 43.3889 63.3986 41.9793 62.2297 40.9478L69.4841 31.5274C70.6186 32.3182 71.9939 32.7995 73.4723 32.7995C76.9104 32.7995 79.764 30.2897 80.2797 26.9891L84.0616 27.3329C84.0616 27.4017 84.0616 27.4361 84.0616 27.5048C84.0616 30.1178 86.1933 32.2494 88.8062 32.2494C90.4565 32.2494 91.9005 31.4243 92.76 30.1522L95.1667 31.5274C94.5135 32.6964 94.1697 34.0029 94.1697 35.4125C94.1009 39.882 97.7109 43.492 102.146 43.492ZM61.4045 40.3633C60.1668 39.5382 58.6884 39.0569 57.0725 39.0569C54.6315 39.0569 52.4655 40.1571 51.0558 41.9105L48.1678 39.9164C48.8898 38.6787 49.3024 37.2691 49.3024 35.7219C49.3024 33.7966 48.6492 32.0431 47.549 30.6679L51.7778 27.1266C52.9812 28.4331 54.7346 29.2583 56.6599 29.2583C59.6855 29.2583 62.2297 27.2298 63.0204 24.4449L66.5273 25.2701C66.4929 25.4764 66.4929 25.717 66.4929 25.9577C66.4929 27.9174 67.3181 29.7052 68.6589 30.9429L61.4045 40.3633Z" fill="url(#paint16_linear_1_4)"/>
<path d="M90.8347 21.9695C93.3791 21.9695 95.4418 19.9068 95.4418 17.3624C95.4418 14.818 93.3791 12.7554 90.8347 12.7554C88.2903 12.7554 86.2276 14.818 86.2276 17.3624C86.2276 19.9068 88.2903 21.9695 90.8347 21.9695Z" fill="url(#paint17_linear_1_4)"/>
<path d="M99.5675 25.2013C100.84 25.2013 101.871 24.17 101.871 22.8978C101.871 21.6256 100.84 20.5942 99.5675 20.5942C98.2953 20.5942 97.2639 21.6256 97.2639 22.8978C97.2639 24.17 98.2953 25.2013 99.5675 25.2013Z" fill="url(#paint18_linear_1_4)"/>
<path d="M82.4113 22.6227C83.6835 22.6227 84.7149 21.5914 84.7149 20.3192C84.7149 19.047 83.6835 18.0157 82.4113 18.0157C81.1391 18.0157 80.1078 19.047 80.1078 20.3192C80.1078 21.5914 81.1391 22.6227 82.4113 22.6227Z" fill="url(#paint19_linear_1_4)"/>
<path d="M67.0086 16.3998C68.4327 16.3998 69.5872 15.2453 69.5872 13.8212C69.5872 12.3971 68.4327 11.2426 67.0086 11.2426C65.5845 11.2426 64.4301 12.3971 64.4301 13.8212C64.4301 15.2453 65.5845 16.3998 67.0086 16.3998Z" fill="url(#paint20_linear_1_4)"/>
<path d="M66.7336 8.66403C69.0501 8.66403 70.9281 6.78609 70.9281 4.46954C70.9281 2.15299 69.0501 0.275055 66.7336 0.275055C64.417 0.275055 62.5391 2.15299 62.5391 4.46954C62.5391 6.78609 64.417 8.66403 66.7336 8.66403Z" fill="url(#paint21_linear_1_4)"/>
<path d="M25.8202 90.7659C27.1683 90.7659 28.2612 89.673 28.2612 88.3249C28.2612 86.9767 27.1683 85.8838 25.8202 85.8838C24.472 85.8838 23.3791 86.9767 23.3791 88.3249C23.3791 89.673 24.472 90.7659 25.8202 90.7659Z" fill="url(#paint22_linear_1_4)"/>
<path d="M27.4704 77.0135C29.5402 77.0135 31.218 75.3357 31.218 73.266C31.218 71.1963 29.5402 69.5185 27.4704 69.5185C25.4007 69.5185 23.7229 71.1963 23.7229 73.266C23.7229 75.3357 25.4007 77.0135 27.4704 77.0135Z" fill="url(#paint23_linear_1_4)"/>
<path d="M26.9547 68.2807C27.9801 68.2807 28.8113 67.4495 28.8113 66.4242C28.8113 65.3988 27.9801 64.5676 26.9547 64.5676C25.9294 64.5676 25.0982 65.3988 25.0982 66.4242C25.0982 67.4495 25.9294 68.2807 26.9547 68.2807Z" fill="url(#paint24_linear_1_4)"/>
<path d="M20.1817 56.7631C21.5298 56.7631 22.6227 55.6702 22.6227 54.322C22.6227 52.9739 21.5298 51.881 20.1817 51.881C18.8335 51.881 17.7406 52.9739 17.7406 54.322C17.7406 55.6702 18.8335 56.7631 20.1817 56.7631Z" fill="url(#paint25_linear_1_4)"/>
<path d="M17.1561 46.105C18.6752 46.105 19.9066 44.8735 19.9066 43.3545C19.9066 41.8354 18.6752 40.604 17.1561 40.604C15.6371 40.604 14.4057 41.8354 14.4057 43.3545C14.4057 44.8735 15.6371 46.105 17.1561 46.105Z" fill="url(#paint26_linear_1_4)"/>
</g>
<g clip-path="url(#clip1_1_4)">
<path d="M70.7133 107.075C71.8599 107.075 72.7833 107.442 73.4833 108.175C74.2366 108.969 74.6133 109.999 74.6133 111.265C74.6133 112.512 74.2366 113.539 73.4833 114.345C72.7966 115.079 71.8733 115.445 70.7133 115.445C69.5466 115.445 68.6199 115.079 67.9333 114.345C67.1799 113.539 66.8033 112.512 66.8033 111.265C66.8033 110.012 67.1799 108.982 67.9333 108.175C68.6266 107.442 69.5533 107.075 70.7133 107.075ZM70.7133 108.505C69.9866 108.505 69.4166 108.789 69.0033 109.355C68.6433 109.849 68.4633 110.485 68.4633 111.265C68.4633 112.159 68.6966 112.859 69.1633 113.365C69.5633 113.799 70.0799 114.015 70.7133 114.015C71.4399 114.015 72.0066 113.732 72.4133 113.165C72.7733 112.679 72.9533 112.045 72.9533 111.265C72.9533 110.372 72.7199 109.672 72.2533 109.165C71.8533 108.725 71.3399 108.505 70.7133 108.505ZM83.9733 112.435H81.8933V115.325H80.2233V107.195H83.8033C84.7166 107.195 85.3966 107.442 85.8433 107.935C86.2366 108.369 86.4333 108.962 86.4333 109.715C86.4333 110.602 86.1833 111.292 85.6833 111.785C85.2433 112.219 84.6733 112.435 83.9733 112.435ZM81.8933 108.595V111.035H83.4433C84.3233 111.035 84.7633 110.632 84.7633 109.825C84.7633 109.005 84.3233 108.595 83.4433 108.595H81.8933ZM97.8333 108.595H95.4733V115.325H93.8033V108.595H91.3333V107.195H97.8333V108.595ZM103.163 107.195H104.833V115.325H103.163V107.195ZM113.953 115.325L112.493 109.005V115.325H110.823V107.195H113.323L114.793 113.665L116.213 107.195H118.733V115.325H117.063V109.005L115.623 115.325H113.953ZM124.723 107.195H126.393V115.325H124.723V107.195ZM131.863 107.195H137.963V108.595L133.813 113.925H137.963V115.325H131.863V113.925L136.013 108.595H131.863V107.195ZM143.513 107.195H145.183V115.325H143.513V107.195ZM157.773 115.325H156.113L152.843 109.705V115.325H151.173V107.195H152.883L156.113 112.725V107.195H157.773V115.325ZM167.583 110.895H170.833V115.325H169.843L169.633 114.165C169.033 115.019 168.22 115.445 167.193 115.445C166 115.445 165.043 115.009 164.323 114.135C163.697 113.362 163.383 112.409 163.383 111.275C163.383 109.935 163.79 108.875 164.603 108.095C165.317 107.415 166.223 107.075 167.323 107.075C168.363 107.075 169.21 107.352 169.863 107.905C170.423 108.372 170.747 108.992 170.833 109.765H169.273C168.96 108.925 168.31 108.505 167.323 108.505C166.563 108.505 165.983 108.779 165.583 109.325C165.23 109.805 165.053 110.442 165.053 111.235C165.053 112.115 165.297 112.815 165.783 113.335C166.21 113.789 166.74 114.015 167.373 114.015C168.047 114.015 168.6 113.772 169.033 113.285C169.253 113.025 169.387 112.695 169.433 112.295H167.583V110.895ZM183.173 107.195H184.843V113.925H188.733V115.325H183.173V107.195ZM194.063 107.195H195.733V115.325H194.063V107.195ZM206.953 111.825H203.393V115.325H201.723V107.195H207.433V108.595H203.393V110.435H206.953V111.825ZM218.433 111.825H214.543V113.925H218.943V115.325H212.873V107.195H218.743V108.595H214.543V110.435H218.433V111.825ZM236.853 108.595H234.493V115.325H232.823V108.595H230.353V107.195H236.853V108.595ZM247.073 115.325V111.635H243.853V115.325H242.183V107.195H243.853V110.245H247.063V107.195H248.743V115.325H247.073ZM258.323 112.105H256.403V115.325H254.733V107.195H259.093C259.78 107.195 260.307 107.382 260.673 107.755C261.08 108.169 261.283 108.719 261.283 109.405C261.283 110.385 260.82 111.052 259.893 111.405C260.42 111.612 260.74 111.865 260.853 112.165C260.933 112.385 260.993 113.115 261.033 114.355C261.04 114.669 261.157 114.889 261.383 115.015V115.325H259.593C259.427 115.012 259.343 114.555 259.343 113.955C259.343 113.802 259.347 113.615 259.353 113.395C259.353 113.242 259.353 113.132 259.353 113.065C259.353 112.425 259.01 112.105 258.323 112.105ZM256.403 108.595V110.705H258.423C258.843 110.705 259.137 110.639 259.303 110.505C259.51 110.332 259.613 110.042 259.613 109.635C259.613 109.255 259.51 108.982 259.303 108.815C259.13 108.669 258.837 108.595 258.423 108.595H256.403ZM270.593 107.075C271.747 107.075 272.67 107.442 273.363 108.175C274.123 108.969 274.503 109.999 274.503 111.265C274.503 112.512 274.123 113.539 273.363 114.345C272.677 115.079 271.753 115.445 270.593 115.445C269.433 115.445 268.507 115.079 267.813 114.345C267.06 113.539 266.683 112.512 266.683 111.265C266.683 110.012 267.06 108.982 267.813 108.175C268.513 107.442 269.44 107.075 270.593 107.075ZM270.593 108.505C269.867 108.505 269.297 108.789 268.883 109.355C268.53 109.849 268.353 110.485 268.353 111.265C268.353 112.159 268.583 112.859 269.043 113.365C269.443 113.799 269.96 114.015 270.593 114.015C271.32 114.015 271.89 113.732 272.303 113.165C272.657 112.679 272.833 112.045 272.833 111.265C272.833 110.372 272.603 109.672 272.143 109.165C271.743 108.725 271.227 108.505 270.593 108.505ZM284.873 112.575V107.195H286.553V112.575C286.553 113.462 286.287 114.145 285.753 114.625C285.153 115.172 284.347 115.445 283.333 115.445C282.313 115.445 281.503 115.172 280.903 114.625C280.37 114.145 280.103 113.462 280.103 112.575V107.195H281.773V112.575C281.773 113.535 282.293 114.015 283.333 114.015C284.36 114.015 284.873 113.535 284.873 112.575ZM296.343 110.895H299.603V115.325H298.603L298.393 114.165C297.8 115.019 296.987 115.445 295.953 115.445C294.76 115.445 293.803 115.009 293.083 114.135C292.457 113.362 292.143 112.409 292.143 111.275C292.143 109.935 292.553 108.875 293.373 108.095C294.08 107.415 294.983 107.075 296.083 107.075C297.123 107.075 297.97 107.352 298.623 107.905C299.183 108.372 299.51 108.992 299.603 109.765H298.033C297.727 108.925 297.077 108.505 296.083 108.505C295.323 108.505 294.743 108.779 294.343 109.325C293.99 109.805 293.813 110.442 293.813 111.235C293.813 112.115 294.06 112.815 294.553 113.335C294.973 113.789 295.503 114.015 296.143 114.015C296.817 114.015 297.367 113.772 297.793 113.285C298.013 113.025 298.147 112.695 298.193 112.295H296.343V110.895ZM310.413 115.325V111.635H307.193V115.325H305.523V107.195H307.193V110.245H310.403V107.195H312.083V115.325H310.413ZM330.323 108.595H327.963V115.325H326.303V108.595H323.823V107.195H330.323V108.595ZM341.223 111.825H337.323V113.925H341.733V115.325H335.663V107.195H341.523V108.595H337.323V110.435H341.223V111.825ZM354.123 109.915H352.533C352.313 108.975 351.733 108.505 350.793 108.505C350.093 108.505 349.553 108.785 349.173 109.345C348.847 109.839 348.683 110.492 348.683 111.305C348.683 112.232 348.89 112.935 349.303 113.415C349.657 113.835 350.137 114.045 350.743 114.045C351.263 114.045 351.677 113.909 351.983 113.635C352.297 113.362 352.48 112.972 352.533 112.465H354.153C354.1 113.445 353.723 114.205 353.023 114.745C352.417 115.212 351.64 115.445 350.693 115.445C349.487 115.445 348.55 115.022 347.883 114.175C347.303 113.442 347.013 112.475 347.013 111.275C347.013 109.895 347.393 108.829 348.153 108.075C348.813 107.409 349.673 107.075 350.733 107.075C351.987 107.075 352.933 107.495 353.573 108.335C353.893 108.749 354.077 109.275 354.123 109.915ZM364.643 115.325V111.635H361.413V115.325H359.753V107.195H361.413V110.245H364.623V107.195H366.303V115.325H364.643Z" fill="#0F2B74"/>
</g>
<g clip-path="url(#clip2_1_4)">
<path d="M66.8033 94.8914V71.4514H69.9533V91.8714H81.8533V94.8914H66.8033ZM85.0533 88.0414C85.0533 86.7014 85.3733 85.4914 86.0133 84.4114C86.6533 83.3314 87.5333 82.478 88.6533 81.8514C89.7799 81.2247 91.0566 80.9114 92.4833 80.9114C93.9499 80.9114 95.2366 81.2247 96.3433 81.8514C97.4433 82.478 98.2966 83.3314 98.9033 84.4114C99.5099 85.4914 99.8133 86.7014 99.8133 88.0414C99.8133 89.3814 99.5099 90.598 98.9033 91.6914C98.2966 92.7847 97.4366 93.6447 96.3233 94.2714C95.2099 94.898 93.9199 95.2114 92.4533 95.2114C91.0266 95.2114 89.7566 94.9147 88.6433 94.3214C87.5299 93.728 86.6533 92.8947 86.0133 91.8214C85.3733 90.7547 85.0533 89.4947 85.0533 88.0414ZM88.0733 88.0814C88.0733 88.9414 88.2666 89.7247 88.6533 90.4314C89.0466 91.1314 89.5733 91.688 90.2333 92.1014C90.8866 92.508 91.6133 92.7114 92.4133 92.7114C93.2599 92.7114 94.0133 92.508 94.6733 92.1014C95.3333 91.688 95.8466 91.1314 96.2133 90.4314C96.5799 89.7247 96.7633 88.9414 96.7633 88.0814C96.7633 87.2147 96.5799 86.4314 96.2133 85.7314C95.8466 85.0247 95.3333 84.4614 94.6733 84.0414C94.0133 83.6214 93.2599 83.4114 92.4133 83.4114C91.5933 83.4114 90.8533 83.628 90.1933 84.0614C89.5333 84.4947 89.0166 85.0614 88.6433 85.7614C88.2633 86.4614 88.0733 87.2347 88.0733 88.0814ZM105.193 81.5314V75.5614H108.203V81.5314H111.903V83.8914H108.203V94.8914H105.193V83.8914H102.723V81.5314H105.193ZM119.783 95.4014C118.57 95.4014 117.57 95.0314 116.783 94.2914C115.997 93.5447 115.58 92.5747 115.533 91.3814V81.4614H118.553V90.3114C118.593 91.0514 118.803 91.648 119.183 92.1014C119.563 92.5547 120.163 92.7914 120.983 92.8114C121.737 92.8114 122.41 92.5914 123.003 92.1514C123.597 91.7047 124.08 91.098 124.453 90.3314C124.82 89.5647 125.003 88.6947 125.003 87.7214V81.4614H128.013V94.8914H125.263L125.003 91.5814L125.163 92.1614C124.903 92.788 124.51 93.3447 123.983 93.8314C123.45 94.318 122.827 94.7014 122.113 94.9814C121.4 95.2614 120.623 95.4014 119.783 95.4014ZM136.993 95.1514C136.047 95.1514 135.123 94.9814 134.223 94.6414C133.33 94.308 132.59 93.8047 132.003 93.1314L133.263 91.3814C133.83 91.9214 134.41 92.328 135.003 92.6014C135.597 92.8747 136.187 93.0114 136.773 93.0114C137.2 93.0114 137.6 92.9547 137.973 92.8414C138.34 92.7347 138.637 92.558 138.863 92.3114C139.09 92.0647 139.203 91.7247 139.203 91.2914C139.203 90.8114 139.047 90.4314 138.733 90.1514C138.42 89.8714 138.02 89.6447 137.533 89.4714C137.047 89.298 136.533 89.138 135.993 88.9914C134.887 88.618 134.043 88.108 133.463 87.4614C132.877 86.8147 132.583 86.0247 132.583 85.0914C132.583 84.378 132.763 83.7147 133.123 83.1014C133.477 82.488 134.007 81.9847 134.713 81.5914C135.413 81.2047 136.283 81.0114 137.323 81.0114C138.25 81.0114 139.08 81.1247 139.813 81.3514C140.553 81.578 141.247 81.9514 141.893 82.4714L140.693 84.3514C140.307 83.938 139.84 83.6347 139.293 83.4414C138.753 83.248 138.27 83.1414 137.843 83.1214C137.47 83.0947 137.117 83.148 136.783 83.2814C136.45 83.408 136.177 83.5914 135.963 83.8314C135.743 84.0714 135.633 84.3514 135.633 84.6714C135.633 85.1247 135.787 85.4947 136.093 85.7814C136.393 86.0614 136.787 86.2814 137.273 86.4414C137.76 86.6014 138.24 86.7681 138.713 86.9414C139.387 87.1347 139.98 87.3947 140.493 87.7214C141.013 88.048 141.43 88.448 141.743 88.9214C142.057 89.3947 142.213 89.988 142.213 90.7014C142.213 91.5014 142.027 92.2414 141.653 92.9214C141.273 93.608 140.7 94.1514 139.933 94.5514C139.167 94.9514 138.187 95.1514 136.993 95.1514ZM160.473 94.8914H157.423V70.7014H157.453L169.743 88.1414L168.413 87.8814L180.663 70.7014H180.733V94.8914H177.623V77.8314L177.813 79.4214L168.963 91.9414H168.903L159.913 79.4214L160.473 77.9614V94.8914ZM192.953 95.2114C191.42 95.2114 190.103 94.9047 189.003 94.2914C187.897 93.6714 187.047 92.828 186.453 91.7614C185.86 90.688 185.563 89.4614 185.563 88.0814C185.563 86.7614 185.897 85.5614 186.563 84.4814C187.237 83.4014 188.137 82.5347 189.263 81.8814C190.383 81.2347 191.637 80.9114 193.023 80.9114C194.79 80.9114 196.26 81.4314 197.433 82.4714C198.6 83.5047 199.387 84.9314 199.793 86.7514L188.743 90.6414L188.023 88.8614L197.103 85.5514L196.453 85.9714C196.193 85.258 195.763 84.638 195.163 84.1114C194.557 83.578 193.767 83.3114 192.793 83.3114C191.973 83.3114 191.237 83.5114 190.583 83.9114C189.937 84.3114 189.43 84.858 189.063 85.5514C188.697 86.2447 188.513 87.0347 188.513 87.9214C188.513 88.848 188.707 89.6614 189.093 90.3614C189.487 91.0681 190.023 91.6214 190.703 92.0214C191.383 92.4214 192.157 92.6214 193.023 92.6214C193.603 92.6214 194.17 92.5114 194.723 92.2914C195.277 92.078 195.79 91.798 196.263 91.4514L197.653 93.6914C196.987 94.1447 196.237 94.5114 195.403 94.7914C194.57 95.0714 193.753 95.2114 192.953 95.2114ZM209.033 95.2114C207.8 95.2114 206.683 94.9147 205.683 94.3214C204.677 93.728 203.88 92.8847 203.293 91.7914C202.713 90.698 202.423 89.438 202.423 88.0114C202.423 86.5247 202.73 85.2514 203.343 84.1914C203.963 83.1314 204.803 82.3214 205.863 81.7614C206.917 81.1947 208.103 80.9114 209.423 80.9114C210.483 80.9114 211.493 81.138 212.453 81.5914C213.42 82.0447 214.173 82.6714 214.713 83.4714L214.583 84.5414V69.7914H217.563V94.8914H214.543V91.5514L214.873 92.3914C214.247 93.2114 213.437 93.888 212.443 94.4214C211.45 94.948 210.313 95.2114 209.033 95.2114ZM209.973 92.6514C210.773 92.6514 211.487 92.5047 212.113 92.2114C212.74 91.918 213.26 91.5147 213.673 91.0014C214.08 90.4814 214.37 89.8647 214.543 89.1514V86.6214C214.37 85.9747 214.063 85.408 213.623 84.9214C213.183 84.4347 212.653 84.0447 212.033 83.7514C211.42 83.458 210.733 83.3114 209.973 83.3114C209.153 83.3114 208.403 83.5114 207.723 83.9114C207.043 84.3114 206.497 84.858 206.083 85.5514C205.677 86.2447 205.473 87.0447 205.473 87.9514C205.473 88.838 205.677 89.6314 206.083 90.3314C206.497 91.0314 207.05 91.5947 207.743 92.0214C208.43 92.4414 209.173 92.6514 209.973 92.6514ZM233.803 94.8914V71.4514H236.953V94.8914H233.803ZM242.943 81.4614H245.643L245.893 84.7414L245.773 84.2214C246.2 83.228 246.9 82.4347 247.873 81.8414C248.847 81.2414 249.97 80.9414 251.243 80.9414C252.523 80.9414 253.567 81.3147 254.373 82.0614C255.187 82.808 255.603 83.7747 255.623 84.9614V94.8914H252.573V86.0314C252.553 85.298 252.343 84.7014 251.943 84.2414C251.543 83.7747 250.923 83.5414 250.083 83.5414C249.303 83.5414 248.6 83.758 247.973 84.1914C247.347 84.6247 246.853 85.218 246.493 85.9714C246.14 86.7247 245.963 87.6014 245.963 88.6014V94.8914H242.943V81.4614ZM260.873 81.4614H263.563L263.823 84.7414L263.693 84.2214C264.127 83.228 264.83 82.4347 265.803 81.8414C266.777 81.2414 267.9 80.9414 269.173 80.9414C270.453 80.9414 271.497 81.3147 272.303 82.0614C273.117 82.808 273.533 83.7747 273.553 84.9614V94.8914H270.503V86.0314C270.483 85.298 270.273 84.7014 269.873 84.2414C269.473 83.7747 268.853 83.5414 268.013 83.5414C267.233 83.5414 266.53 83.758 265.903 84.1914C265.277 84.6247 264.783 85.218 264.423 85.9714C264.07 86.7247 263.893 87.6014 263.893 88.6014V94.8914H260.873V81.4614ZM277.633 88.0414C277.633 86.7014 277.953 85.4914 278.593 84.4114C279.233 83.3314 280.113 82.478 281.233 81.8514C282.36 81.2247 283.637 80.9114 285.063 80.9114C286.53 80.9114 287.817 81.2247 288.923 81.8514C290.023 82.478 290.877 83.3314 291.483 84.4114C292.09 85.4914 292.393 86.7014 292.393 88.0414C292.393 89.3814 292.09 90.598 291.483 91.6914C290.877 92.7847 290.017 93.6447 288.903 94.2714C287.79 94.898 286.5 95.2114 285.033 95.2114C283.607 95.2114 282.337 94.9147 281.223 94.3214C280.11 93.728 279.233 92.8947 278.593 91.8214C277.953 90.7547 277.633 89.4947 277.633 88.0414ZM280.653 88.0814C280.653 88.9414 280.847 89.7247 281.233 90.4314C281.627 91.1314 282.153 91.688 282.813 92.1014C283.467 92.508 284.193 92.7114 284.993 92.7114C285.84 92.7114 286.593 92.508 287.253 92.1014C287.913 91.688 288.427 91.1314 288.793 90.4314C289.16 89.7247 289.343 88.9414 289.343 88.0814C289.343 87.2147 289.16 86.4314 288.793 85.7314C288.427 85.0247 287.913 84.4614 287.253 84.0414C286.593 83.6214 285.84 83.4114 284.993 83.4114C284.173 83.4114 283.433 83.628 282.773 84.0614C282.113 84.4947 281.597 85.0614 281.223 85.7614C280.843 86.4614 280.653 87.2347 280.653 88.0814ZM301.663 95.2714H301.503L294.043 81.4614H297.613L302.663 92.1314L300.823 92.0714L305.453 81.4614H308.823L301.663 95.2714ZM317.123 95.2114C315.87 95.2114 314.73 94.9414 313.703 94.4014C312.677 93.8614 311.867 93.068 311.273 92.0214C310.68 90.9681 310.383 89.6847 310.383 88.1714C310.383 86.6847 310.697 85.3947 311.323 84.3014C311.95 83.208 312.787 82.3714 313.833 81.7914C314.887 81.2047 316.04 80.9114 317.293 80.9114C318.547 80.9114 319.603 81.198 320.463 81.7714C321.33 82.3447 321.99 83.0214 322.443 83.8014L322.253 84.3214L322.543 81.4614H325.333V94.8914H322.313V91.3814L322.643 92.1614C322.557 92.3814 322.367 92.658 322.073 92.9914C321.78 93.3247 321.39 93.6647 320.903 94.0114C320.417 94.358 319.86 94.6447 319.233 94.8714C318.607 95.098 317.903 95.2114 317.123 95.2114ZM317.933 92.7114C318.693 92.7114 319.377 92.5714 319.983 92.2914C320.583 92.0114 321.083 91.6181 321.483 91.1114C321.883 90.6047 322.16 89.9947 322.313 89.2814V86.6514C322.14 86.0047 321.837 85.438 321.403 84.9514C320.97 84.4647 320.453 84.0847 319.853 83.8114C319.247 83.5447 318.577 83.4114 317.843 83.4114C317.043 83.4114 316.307 83.6047 315.633 83.9914C314.967 84.3847 314.433 84.9247 314.033 85.6114C313.633 86.3047 313.433 87.1147 313.433 88.0414C313.433 88.908 313.637 89.698 314.043 90.4114C314.457 91.1247 315.01 91.688 315.703 92.1014C316.39 92.508 317.133 92.7114 317.933 92.7114ZM331.843 81.5314V75.5614H334.863V81.5314H338.553V83.8914H334.863V94.8914H331.843V83.8914H329.383V81.5314H331.843ZM342.183 94.8914V81.4614H345.203V94.8914H342.183ZM341.963 76.6014C341.963 76.128 342.153 75.728 342.533 75.4014C342.907 75.0747 343.32 74.9114 343.773 74.9114C344.227 74.9114 344.633 75.0747 344.993 75.4014C345.347 75.728 345.523 76.128 345.523 76.6014C345.523 77.1014 345.347 77.508 344.993 77.8214C344.633 78.1347 344.227 78.2914 343.773 78.2914C343.32 78.2914 342.907 78.128 342.533 77.8014C342.153 77.4747 341.963 77.0747 341.963 76.6014ZM349.253 88.0414C349.253 86.7014 349.573 85.4914 350.213 84.4114C350.853 83.3314 351.733 82.478 352.853 81.8514C353.98 81.2247 355.257 80.9114 356.683 80.9114C358.15 80.9114 359.437 81.2247 360.543 81.8514C361.643 82.478 362.497 83.3314 363.103 84.4114C363.703 85.4914 364.003 86.7014 364.003 88.0414C364.003 89.3814 363.703 90.598 363.103 91.6914C362.497 92.7847 361.637 93.6447 360.523 94.2714C359.41 94.898 358.117 95.2114 356.643 95.2114C355.217 95.2114 353.95 94.9147 352.843 94.3214C351.73 93.728 350.853 92.8947 350.213 91.8214C349.573 90.7547 349.253 89.4947 349.253 88.0414ZM352.273 88.0814C352.273 88.9414 352.467 89.7247 352.853 90.4314C353.24 91.1314 353.763 91.688 354.423 92.1014C355.083 92.508 355.813 92.7114 356.613 92.7114C357.46 92.7114 358.213 92.508 358.873 92.1014C359.527 91.688 360.04 91.1314 360.413 90.4314C360.78 89.7247 360.963 88.9414 360.963 88.0814C360.963 87.2147 360.78 86.4314 360.413 85.7314C360.04 85.0247 359.527 84.4614 358.873 84.0414C358.213 83.6214 357.46 83.4114 356.613 83.4114C355.793 83.4114 355.053 83.628 354.393 84.0614C353.733 84.4947 353.217 85.0614 352.843 85.7614C352.463 86.4614 352.273 87.2347 352.273 88.0814ZM368.093 81.4614H370.783L371.043 84.7414L370.913 84.2214C371.347 83.228 372.05 82.4347 373.023 81.8414C373.997 81.2414 375.12 80.9414 376.393 80.9414C377.667 80.9414 378.71 81.3147 379.523 82.0614C380.33 82.808 380.747 83.7747 380.773 84.9614V94.8914H377.723V86.0314C377.703 85.298 377.493 84.7014 377.093 84.2414C376.693 83.7747 376.07 83.5414 375.223 83.5414C374.443 83.5414 373.74 83.758 373.113 84.1914C372.487 84.6247 371.997 85.218 371.643 85.9714C371.283 86.7247 371.103 87.6014 371.103 88.6014V94.8914H368.093V81.4614Z" fill="#48137E"/>
</g>
<defs>
<linearGradient id="paint0_linear_1_4" x1="-1.42451" y1="25.7868" x2="110.683" y2="25.7868" gradientUnits="userSpaceOnUse">
<stop stop-color="#40B7E9"/>
<stop offset="0.5045" stop-color="#6971B0"/>
<stop offset="1" stop-color="#C93492"/>
</linearGradient>
<linearGradient id="paint1_linear_1_4" x1="-1.42451" y1="31.2613" x2="110.683" y2="31.2613" gradientUnits="userSpaceOnUse">
<stop stop-color="#40B7E9"/>
<stop offset="0.5045" stop-color="#6971B0"/>
<stop offset="1" stop-color="#C93492"/>
</linearGradient>
<linearGradient id="paint2_linear_1_4" x1="-1.42451" y1="31.1172" x2="110.683" y2="31.1172" gradientUnits="userSpaceOnUse">
<stop stop-color="#40B7E9"/>
<stop offset="0.5045" stop-color="#6971B0"/>
<stop offset="1" stop-color="#C93492"/>
</linearGradient>
<linearGradient id="paint3_linear_1_4" x1="-1.4245" y1="8.78739" x2="110.683" y2="8.78739" gradientUnits="userSpaceOnUse">
<stop stop-color="#40B7E9"/>
<stop offset="0.5045" stop-color="#6971B0"/>
<stop offset="1" stop-color="#C93492"/>
</linearGradient>
<linearGradient id="paint4_linear_1_4" x1="-1.4245" y1="23.3378" x2="110.683" y2="23.3378" gradientUnits="userSpaceOnUse">
<stop stop-color="#40B7E9"/>
<stop offset="0.5045" stop-color="#6971B0"/>
<stop offset="1" stop-color="#C93492"/>
</linearGradient>
<linearGradient id="paint5_linear_1_4" x1="-1.42449" y1="23.6259" x2="110.683" y2="23.6259" gradientUnits="userSpaceOnUse">
<stop stop-color="#40B7E9"/>
<stop offset="0.5045" stop-color="#6971B0"/>
<stop offset="1" stop-color="#C93492"/>
</linearGradient>
<linearGradient id="paint6_linear_1_4" x1="-1.42451" y1="3.74516" x2="110.683" y2="3.74516" gradientUnits="userSpaceOnUse">
<stop stop-color="#40B7E9"/>
<stop offset="0.5045" stop-color="#6971B0"/>
<stop offset="1" stop-color="#C93492"/>
</linearGradient>
<linearGradient id="paint7_linear_1_4" x1="-1.4245" y1="14.9821" x2="110.683" y2="14.9821" gradientUnits="userSpaceOnUse">
<stop stop-color="#40B7E9"/>
<stop offset="0.5045" stop-color="#6971B0"/>
<stop offset="1" stop-color="#C93492"/>
</linearGradient>
<linearGradient id="paint8_linear_1_4" x1="-1.42448" y1="33.4222" x2="110.683" y2="33.4222" gradientUnits="userSpaceOnUse">
<stop stop-color="#40B7E9"/>
<stop offset="0.5045" stop-color="#6971B0"/>
<stop offset="1" stop-color="#C93492"/>
</linearGradient>
<linearGradient id="paint9_linear_1_4" x1="-1.4245" y1="33.4222" x2="110.683" y2="33.4222" gradientUnits="userSpaceOnUse">
<stop stop-color="#40B7E9"/>
<stop offset="0.5045" stop-color="#6971B0"/>
<stop offset="1" stop-color="#C93492"/>
</linearGradient>
<linearGradient id="paint10_linear_1_4" x1="-1.42449" y1="60.5061" x2="110.683" y2="60.5061" gradientUnits="userSpaceOnUse">
<stop stop-color="#40B7E9"/>
<stop offset="0.5045" stop-color="#6971B0"/>
<stop offset="1" stop-color="#C93492"/>
</linearGradient>
<linearGradient id="paint11_linear_1_4" x1="-1.42444" y1="48.5488" x2="110.683" y2="48.5488" gradientUnits="userSpaceOnUse">
<stop stop-color="#40B7E9"/>
<stop offset="0.5045" stop-color="#6971B0"/>
<stop offset="1" stop-color="#C93492"/>
</linearGradient>
<linearGradient id="paint12_linear_1_4" x1="-1.42457" y1="44.8032" x2="110.683" y2="44.8032" gradientUnits="userSpaceOnUse">
<stop stop-color="#40B7E9"/>
<stop offset="0.5045" stop-color="#6971B0"/>
<stop offset="1" stop-color="#C93492"/>
</linearGradient>
<linearGradient id="paint13_linear_1_4" x1="-1.42455" y1="40.6254" x2="110.683" y2="40.6254" gradientUnits="userSpaceOnUse">
<stop stop-color="#40B7E9"/>
<stop offset="0.5045" stop-color="#6971B0"/>
<stop offset="1" stop-color="#C93492"/>
</linearGradient>
<linearGradient id="paint14_linear_1_4" x1="-1.42451" y1="38.6085" x2="110.683" y2="38.6085" gradientUnits="userSpaceOnUse">
<stop stop-color="#40B7E9"/>
<stop offset="0.5045" stop-color="#6971B0"/>
<stop offset="1" stop-color="#C93492"/>
</linearGradient>
<linearGradient id="paint15_linear_1_4" x1="-1.42456" y1="34.5747" x2="110.683" y2="34.5747" gradientUnits="userSpaceOnUse">
<stop stop-color="#40B7E9"/>
<stop offset="0.5045" stop-color="#6971B0"/>
<stop offset="1" stop-color="#C93492"/>
</linearGradient>
<linearGradient id="paint16_linear_1_4" x1="-1.42451" y1="44.4431" x2="110.683" y2="44.4431" gradientUnits="userSpaceOnUse">
<stop stop-color="#40B7E9"/>
<stop offset="0.5045" stop-color="#6971B0"/>
<stop offset="1" stop-color="#C93492"/>
</linearGradient>
<linearGradient id="paint17_linear_1_4" x1="-1.42447" y1="17.3527" x2="110.683" y2="17.3527" gradientUnits="userSpaceOnUse">
<stop stop-color="#40B7E9"/>
<stop offset="0.5045" stop-color="#6971B0"/>
<stop offset="1" stop-color="#C93492"/>
</linearGradient>
<linearGradient id="paint18_linear_1_4" x1="-1.42469" y1="22.9056" x2="110.683" y2="22.9056" gradientUnits="userSpaceOnUse">
<stop stop-color="#40B7E9"/>
<stop offset="0.5045" stop-color="#6971B0"/>
<stop offset="1" stop-color="#C93492"/>
</linearGradient>
<linearGradient id="paint19_linear_1_4" x1="-1.42448" y1="20.3124" x2="110.683" y2="20.3124" gradientUnits="userSpaceOnUse">
<stop stop-color="#40B7E9"/>
<stop offset="0.5045" stop-color="#6971B0"/>
<stop offset="1" stop-color="#C93492"/>
</linearGradient>
<linearGradient id="paint20_linear_1_4" x1="-1.4245" y1="13.8296" x2="110.683" y2="13.8296" gradientUnits="userSpaceOnUse">
<stop stop-color="#40B7E9"/>
<stop offset="0.5045" stop-color="#6971B0"/>
<stop offset="1" stop-color="#C93492"/>
</linearGradient>
<linearGradient id="paint21_linear_1_4" x1="-1.4245" y1="4.46549" x2="110.683" y2="4.46549" gradientUnits="userSpaceOnUse">
<stop stop-color="#40B7E9"/>
<stop offset="0.5045" stop-color="#6971B0"/>
<stop offset="1" stop-color="#C93492"/>
</linearGradient>
<linearGradient id="paint22_linear_1_4" x1="-1.4245" y1="88.3103" x2="110.683" y2="88.3103" gradientUnits="userSpaceOnUse">
<stop stop-color="#40B7E9"/>
<stop offset="0.5045" stop-color="#6971B0"/>
<stop offset="1" stop-color="#C93492"/>
</linearGradient>
<linearGradient id="paint23_linear_1_4" x1="-1.4245" y1="73.2557" x2="110.683" y2="73.2557" gradientUnits="userSpaceOnUse">
<stop stop-color="#40B7E9"/>
<stop offset="0.5045" stop-color="#6971B0"/>
<stop offset="1" stop-color="#C93492"/>
</linearGradient>
<linearGradient id="paint24_linear_1_4" x1="-1.4245" y1="66.4127" x2="110.683" y2="66.4127" gradientUnits="userSpaceOnUse">
<stop stop-color="#40B7E9"/>
<stop offset="0.5045" stop-color="#6971B0"/>
<stop offset="1" stop-color="#C93492"/>
</linearGradient>
<linearGradient id="paint25_linear_1_4" x1="-1.4245" y1="54.3114" x2="110.683" y2="54.3114" gradientUnits="userSpaceOnUse">
<stop stop-color="#40B7E9"/>
<stop offset="0.5045" stop-color="#6971B0"/>
<stop offset="1" stop-color="#C93492"/>
</linearGradient>
<linearGradient id="paint26_linear_1_4" x1="-1.42451" y1="43.3626" x2="110.683" y2="43.3626" gradientUnits="userSpaceOnUse">
<stop stop-color="#40B7E9"/>
<stop offset="0.5045" stop-color="#6971B0"/>
<stop offset="1" stop-color="#C93492"/>
</linearGradient>
<clipPath id="clip0_1_4">
<rect width="110.226" height="90.766" fill="white"/>
</clipPath>
<clipPath id="clip1_1_4">
<rect width="299.5" height="8.37" fill="white" transform="translate(66.8033 107.075)"/>
</clipPath>
<clipPath id="clip2_1_4">
<rect width="313.97" height="25.61" fill="white" transform="translate(66.8033 69.7914)"/>
</clipPath>
</defs>
</svg>
