<svg xmlns="http://www.w3.org/2000/svg" viewBox="18.788389513108612 164.4127040677303 527.5832431798208 251.47000503307672"> <svg xmlns="http://www.w3.org/2000/svg" xmlns:xlink="http://www.w3.org/1999/xlink" version="1.1" id="Layer_1" x="88.78838951310861" y="234.4127040677303" viewBox="19.399999618530273 47.79999542236328 320.6000061035156 264.0000305175781" xml:space="preserve" height="90.76596879629912" width="110.22559946958152" preserveAspectRatio="xMinYMin" enable-background="new 0 0 360 360" style="overflow: visible;"><linearGradient id="SVGID_1_" gradientUnits="userSpaceOnUse" x1="15.2567" y1="122.8031" x2="341.3317" y2="122.8031" style=""><stop offset="0" style="stop-color: #40B7E9;"></stop><stop offset="0.5045" style="stop-color: #6971B0;"></stop><stop offset="1" style="stop-color: #C93492;"></stop></linearGradient><circle class="st0" cx="54.2" cy="122.8" r="10.5" style="fill: url(#SVGID_1_);"></circle><linearGradient id="SVGID_2_" gradientUnits="userSpaceOnUse" x1="15.2567" y1="138.7259" x2="341.3317" y2="138.7259" style=""><stop offset="0" style="stop-color: #40B7E9;"></stop><stop offset="0.5045" style="stop-color: #6971B0;"></stop><stop offset="1" style="stop-color: #C93492;"></stop></linearGradient><circle class="st1" cx="76.4" cy="138.7" r="11.3" style="fill: url(#SVGID_2_);"></circle><linearGradient id="SVGID_3_" gradientUnits="userSpaceOnUse" x1="15.2567" y1="138.3069" x2="341.3317" y2="138.3069" style=""><stop offset="0" style="stop-color: #40B7E9;"></stop><stop offset="0.5045" style="stop-color: #6971B0;"></stop><stop offset="1" style="stop-color: #C93492;"></stop></linearGradient><circle class="st2" cx="101.6" cy="138.3" r="8.8" style="fill: url(#SVGID_3_);"></circle><linearGradient id="SVGID_4_" gradientUnits="userSpaceOnUse" x1="15.2567" y1="73.3588" x2="341.3317" y2="73.3588" style=""><stop offset="0" style="stop-color: #40B7E9;"></stop><stop offset="0.5045" style="stop-color: #6971B0;"></stop><stop offset="1" style="stop-color: #C93492;"></stop></linearGradient><circle class="st3" cx="97.8" cy="73.4" r="8.4" style="fill: url(#SVGID_4_);"></circle><linearGradient id="SVGID_5_" gradientUnits="userSpaceOnUse" x1="15.2567" y1="115.6798" x2="341.3317" y2="115.6798" style=""><stop offset="0" style="stop-color: #40B7E9;"></stop><stop offset="0.5045" style="stop-color: #6971B0;"></stop><stop offset="1" style="stop-color: #C93492;"></stop></linearGradient><circle class="st4" cx="121.7" cy="115.7" r="6.3" style="fill: url(#SVGID_5_);"></circle><linearGradient id="SVGID_6_" gradientUnits="userSpaceOnUse" x1="15.2567" y1="116.5178" x2="341.3317" y2="116.5178" style=""><stop offset="0" style="stop-color: #40B7E9;"></stop><stop offset="0.5045" style="stop-color: #6971B0;"></stop><stop offset="1" style="stop-color: #C93492;"></stop></linearGradient><circle class="st5" cx="144.7" cy="116.5" r="6.7" style="fill: url(#SVGID_6_);"></circle><linearGradient id="SVGID_7_" gradientUnits="userSpaceOnUse" x1="15.2567" y1="58.6931" x2="341.3317" y2="58.6931" style=""><stop offset="0" style="stop-color: #40B7E9;"></stop><stop offset="0.5045" style="stop-color: #6971B0;"></stop><stop offset="1" style="stop-color: #C93492;"></stop></linearGradient><circle class="st6" cx="152.3" cy="58.7" r="10.9" style="fill: url(#SVGID_7_);"></circle><linearGradient id="SVGID_8_" gradientUnits="userSpaceOnUse" x1="15.2567" y1="91.3767" x2="341.3317" y2="91.3767" style=""><stop offset="0" style="stop-color: #40B7E9;"></stop><stop offset="0.5045" style="stop-color: #6971B0;"></stop><stop offset="1" style="stop-color: #C93492;"></stop></linearGradient><circle class="st7" cx="161.1" cy="91.4" r="7.5" style="fill: url(#SVGID_8_);"></circle><linearGradient id="SVGID_9_" gradientUnits="userSpaceOnUse" x1="15.2567" y1="145.0112" x2="341.3317" y2="145.0112" style=""><stop offset="0" style="stop-color: #40B7E9;"></stop><stop offset="0.5045" style="stop-color: #6971B0;"></stop><stop offset="1" style="stop-color: #C93492;"></stop></linearGradient><circle class="st8" cx="195.9" cy="145" r="11.3" style="fill: url(#SVGID_9_);"></circle><linearGradient id="SVGID_10_" gradientUnits="userSpaceOnUse" x1="15.2567" y1="145.0112" x2="341.3317" y2="145.0112" style=""><stop offset="0" style="stop-color: #40B7E9;"></stop><stop offset="0.5045" style="stop-color: #6971B0;"></stop><stop offset="1" style="stop-color: #C93492;"></stop></linearGradient><circle class="st9" cx="173.2" cy="145" r="7.1" style="fill: url(#SVGID_10_);"></circle><linearGradient id="SVGID_11_" gradientUnits="userSpaceOnUse" x1="15.2567" y1="223.7868" x2="341.3317" y2="223.7868" style=""><stop offset="0" style="stop-color: #40B7E9;"></stop><stop offset="0.5045" style="stop-color: #6971B0;"></stop><stop offset="1" style="stop-color: #C93492;"></stop></linearGradient><circle class="st10" cx="197.5" cy="223.8" r="9.2" style="fill: url(#SVGID_11_);"></circle><linearGradient id="SVGID_12_" gradientUnits="userSpaceOnUse" x1="15.2567" y1="189.0082" x2="341.3317" y2="189.0082" style=""><stop offset="0" style="stop-color: #40B7E9;"></stop><stop offset="0.5045" style="stop-color: #6971B0;"></stop><stop offset="1" style="stop-color: #C93492;"></stop></linearGradient><circle class="st11" cx="223.5" cy="189" r="5.4" style="fill: url(#SVGID_12_);"></circle><linearGradient id="SVGID_13_" gradientUnits="userSpaceOnUse" x1="15.2567" y1="178.1137" x2="341.3317" y2="178.1137" style=""><stop offset="0" style="stop-color: #40B7E9;"></stop><stop offset="0.5045" style="stop-color: #6971B0;"></stop><stop offset="1" style="stop-color: #C93492;"></stop></linearGradient><circle class="st12" cx="285.9" cy="178.1" r="10.1" style="fill: url(#SVGID_13_);"></circle><linearGradient id="SVGID_14_" gradientUnits="userSpaceOnUse" x1="15.2567" y1="165.9621" x2="341.3317" y2="165.9621" style=""><stop offset="0" style="stop-color: #40B7E9;"></stop><stop offset="0.5045" style="stop-color: #6971B0;"></stop><stop offset="1" style="stop-color: #C93492;"></stop></linearGradient><circle class="st13" cx="270.4" cy="166" r="6.3" style="fill: url(#SVGID_14_);"></circle><linearGradient id="SVGID_15_" gradientUnits="userSpaceOnUse" x1="15.2567" y1="160.0959" x2="341.3317" y2="160.0959" style=""><stop offset="0" style="stop-color: #40B7E9;"></stop><stop offset="0.5045" style="stop-color: #6971B0;"></stop><stop offset="1" style="stop-color: #C93492;"></stop></linearGradient><circle class="st14" cx="223.1" cy="160.1" r="8" style="fill: url(#SVGID_15_);"></circle><linearGradient id="SVGID_16_" gradientUnits="userSpaceOnUse" x1="15.2567" y1="148.3633" x2="341.3317" y2="148.3633" style=""><stop offset="0" style="stop-color: #40B7E9;"></stop><stop offset="0.5045" style="stop-color: #6971B0;"></stop><stop offset="1" style="stop-color: #C93492;"></stop></linearGradient><circle class="st15" cx="259.1" cy="148.4" r="9.6" style="fill: url(#SVGID_16_);"></circle><linearGradient id="SVGID_17_" gradientUnits="userSpaceOnUse" x1="15.2567" y1="177.0662" x2="341.3317" y2="177.0662" style=""><stop offset="0" style="stop-color: #40B7E9;"></stop><stop offset="0.5045" style="stop-color: #6971B0;"></stop><stop offset="1" style="stop-color: #C93492;"></stop></linearGradient><path class="st16" d="M316.5,174.3c13,0,23.5-10.5,23.5-23.5c0-13-10.5-23.5-23.5-23.5c-7.8,0-14.8,3.8-19,9.7l-7.1-4.1   c0.7-1.6,1-3.4,1-5.2c0-7.6-6.2-13.8-13.8-13.8c-6.5,0-11.9,4.5-13.4,10.5l-11.2-1c0-0.1,0-0.2,0-0.3c0-9-5.9-16.6-14-19.1l3-10.9   c1,0.2,2,0.3,3,0.3c8.3,0,15.1-6.8,15.1-15.1c0-8.3-6.8-15.1-15.1-15.1c-8.3,0-15.1,6.8-15.1,15.1c0,6.3,3.9,11.7,9.4,14l-3,11   c-1.1-0.2-2.2-0.3-3.3-0.3c-9.4,0-17.4,6.5-19.5,15.3l-10.2-2.3c0.1-0.8,0.2-1.6,0.2-2.5c0-10.2-8-18.6-18.1-19.2l-0.5-8.3   c7-1.3,12.3-7.4,12.3-14.8c0-8.3-6.8-15.1-15.1-15.1c-8.3,0-15.1,6.8-15.1,15.1c0,8.3,6.7,15.1,15,15.1l0.5,8   c-9.9,0.8-17.6,9.1-17.6,19.2c0,4,1.2,7.7,3.3,10.8l-12.4,10.4c-4.3-4.3-10.3-7-16.9-7c-0.7,0-1.4,0-2,0.1l-4.5-26.2   c7.6-1.9,13.3-8.8,13.3-17.1c0-9.7-7.9-17.6-17.6-17.6s-17.6,7.9-17.6,17.6s7.9,17.6,17.6,17.6c0.5,0,1,0,1.5-0.1l4.5,26.1   c-4.7,1-9,3.4-12.2,6.7l-23.2-21.7c2.1-3,3.4-6.7,3.4-10.7c0-10.2-8.3-18.4-18.4-18.4s-18.4,8.3-18.4,18.4   c0,10.2,8.3,18.4,18.4,18.4c5.2,0,9.8-2.1,13.2-5.6l23.2,21.6c-3.1,4-4.9,9.1-4.9,14.5c0,0.2,0,0.3,0,0.5L60.3,155   c-1.6-9.8-10.1-17.2-20.3-17.2c-11.4,0-20.6,9.2-20.6,20.6c0,11.4,9.2,20.6,20.6,20.6c11.4,0,20.6-9.2,20.6-20.6c0-0.2,0-0.4,0-0.6   l54.7-2.8c0.5,3.7,1.9,7,3.8,10l-7.5,5.6c-3.1-3.9-8-6.4-13.4-6.4c-9.5,0-17.2,7.7-17.2,17.2c0,1.6,0.2,3.2,0.7,4.7l-17.6,7.3   c-2.8-4.7-7.9-7.8-13.7-7.8c-8.8,0-15.9,7.1-15.9,15.9c0,8.8,7.1,15.9,15.9,15.9c8.8,0,15.9-7.1,15.9-15.9c0-2-0.4-3.8-1-5.6   l17.3-7.2c2.8,5.8,8.7,9.8,15.5,9.8c9.5,0,17.2-7.7,17.2-17.2c0-3.1-0.8-5.9-2.2-8.4l7.6-5.7c3.8,4.5,9.3,7.5,15.5,8.1l0.2,13.1   c0,0-0.1,0-0.1,0c-11.3,0-20.5,9.2-20.5,20.5c0,1.4,0.1,2.8,0.4,4.2l-3.6,1c-1.9-5.7-7.2-9.8-13.5-9.8c-7.9,0-14.2,6.4-14.2,14.2   c0,7.9,6.4,14.2,14.2,14.2s14.2-6.4,14.2-14.2c0-0.6,0-1.1-0.1-1.6l3.8-1.1c2.4,6.8,8.3,11.9,15.6,13.2l-0.5,6.7   c-0.4,0-0.8,0-1.2,0c-10,0-18,8.1-18,18c0,5.5,2.5,10.4,6.3,13.7l-0.5,1.1l-4,5.8c-1.5-0.6-3.1-1-4.8-1c-6.7,0-12.2,5.4-12.2,12.2   c0,6.7,5.4,12.2,12.2,12.2s12.2-5.4,12.2-12.2c0-4-1.9-7.5-4.9-9.7l4-5.8l0.4-0.9c2.7,1.7,5.9,2.6,9.3,2.6c10,0,18-8.1,18-18   c0-8.6-6-15.7-14-17.6l0.5-6.8c0.3,0,0.6,0,0.9,0c6.5,0,12.3-3,16.1-7.7l4.4,3.4c-1,1.8-1.6,3.9-1.6,6c0,6.9,5.6,12.6,12.6,12.6   c6.9,0,12.6-5.6,12.6-12.6c0-6.9-5.6-12.6-12.6-12.6c-3.7,0-7.1,1.6-9.4,4.2l-4.4-3.4c1.8-3.1,2.9-6.6,2.9-10.4   c0-10.3-7.6-18.9-17.6-20.3l-0.2-13.2c7.6-0.1,14.4-3.7,18.7-9.3l8.4,5.7c-2.2,3.5-3.4,7.6-3.4,12c0,12.5,10.1,22.6,22.6,22.6   c7.3,0,13.8-3.5,18-8.9l12.1,7.8c-1.5,2.4-2.4,5.2-2.4,8.2c0,8.3,6.8,15.1,15.1,15.1c8.3,0,15.1-6.8,15.1-15.1   c0-8.3-6.8-15.1-15.1-15.1c-4.3,0-8.1,1.8-10.9,4.6l-12.3-7.9c2-3.3,3.1-7.2,3.1-11.4c0-0.9-0.1-1.7-0.1-2.6l23.5-3.5   c1.3,6.6,7.1,11.5,14,11.5c3.3,0,6.4-1.1,8.8-3l9.1,11.7c-4.3,3.5-7,8.9-7,14.8c0,10.6,8.6,19.3,19.3,19.3s19.3-8.6,19.3-19.3   c0-2.6-0.5-5.1-1.4-7.3l7.3-4.5c2.5,3.6,6.6,5.9,11.3,5.9c7.6,0,13.8-6.2,13.8-13.8c0-7.6-6.2-13.8-13.8-13.8s-13.8,6.2-13.8,13.8   c0,1.9,0.4,3.8,1.1,5.4L292,203c-3.4-5.6-9.5-9.4-16.5-9.4c-3.7,0-7.1,1-10,2.8l-9.3-12c2.1-2.5,3.4-5.7,3.4-9.2   c0-7.9-6.4-14.2-14.2-14.2c-7.8,0-14.2,6.3-14.2,14.1l-23.7,3.5c-1.1-4.6-3.7-8.7-7.1-11.7l21.1-27.4c3.3,2.3,7.3,3.7,11.6,3.7   c10,0,18.3-7.3,19.8-16.9l11,1c0,0.2,0,0.3,0,0.5c0,7.6,6.2,13.8,13.8,13.8c4.8,0,9-2.4,11.5-6.1l7,4c-1.9,3.4-2.9,7.2-2.9,11.3   C293.1,163.8,303.6,174.3,316.5,174.3z M198,165.2c-3.6-2.4-7.9-3.8-12.6-3.8c-7.1,0-13.4,3.2-17.5,8.3l-8.4-5.8   c2.1-3.6,3.3-7.7,3.3-12.2c0-5.6-1.9-10.7-5.1-14.7l12.3-10.3c3.5,3.8,8.6,6.2,14.2,6.2c8.8,0,16.2-5.9,18.5-14l10.2,2.4   c-0.1,0.6-0.1,1.3-0.1,2c0,5.7,2.4,10.9,6.3,14.5L198,165.2z" style="fill: url(#SVGID_17_);"></path><linearGradient id="SVGID_18_" gradientUnits="userSpaceOnUse" x1="15.2567" y1="98.2716" x2="341.3317" y2="98.2716" style=""><stop offset="0" style="stop-color: #40B7E9;"></stop><stop offset="0.5045" style="stop-color: #6971B0;"></stop><stop offset="1" style="stop-color: #C93492;"></stop></linearGradient><circle class="st17" cx="283.6" cy="98.3" r="13.4" style="fill: url(#SVGID_18_);"></circle><linearGradient id="SVGID_19_" gradientUnits="userSpaceOnUse" x1="15.2567" y1="114.4228" x2="341.3317" y2="114.4228" style=""><stop offset="0" style="stop-color: #40B7E9;"></stop><stop offset="0.5045" style="stop-color: #6971B0;"></stop><stop offset="1" style="stop-color: #C93492;"></stop></linearGradient><circle class="st18" cx="309" cy="114.4" r="6.7" style="fill: url(#SVGID_19_);"></circle><linearGradient id="SVGID_20_" gradientUnits="userSpaceOnUse" x1="15.2567" y1="106.8804" x2="341.3317" y2="106.8804" style=""><stop offset="0" style="stop-color: #40B7E9;"></stop><stop offset="0.5045" style="stop-color: #6971B0;"></stop><stop offset="1" style="stop-color: #C93492;"></stop></linearGradient><circle class="st19" cx="259.1" cy="106.9" r="6.7" style="fill: url(#SVGID_20_);"></circle><linearGradient id="SVGID_21_" gradientUnits="userSpaceOnUse" x1="15.2567" y1="88.0245" x2="341.3317" y2="88.0245" style=""><stop offset="0" style="stop-color: #40B7E9;"></stop><stop offset="0.5045" style="stop-color: #6971B0;"></stop><stop offset="1" style="stop-color: #C93492;"></stop></linearGradient><circle class="st20" cx="214.3" cy="88" r="7.5" style="fill: url(#SVGID_21_);"></circle><linearGradient id="SVGID_22_" gradientUnits="userSpaceOnUse" x1="15.2567" y1="60.7882" x2="341.3317" y2="60.7882" style=""><stop offset="0" style="stop-color: #40B7E9;"></stop><stop offset="0.5045" style="stop-color: #6971B0;"></stop><stop offset="1" style="stop-color: #C93492;"></stop></linearGradient><circle class="st21" cx="213.5" cy="60.8" r="12.2" style="fill: url(#SVGID_22_);"></circle><linearGradient id="SVGID_23_" gradientUnits="userSpaceOnUse" x1="15.2567" y1="304.6576" x2="341.3317" y2="304.6576" style=""><stop offset="0" style="stop-color: #40B7E9;"></stop><stop offset="0.5045" style="stop-color: #6971B0;"></stop><stop offset="1" style="stop-color: #C93492;"></stop></linearGradient><circle class="st22" cx="94.5" cy="304.7" r="7.1" style="fill: url(#SVGID_23_);"></circle><linearGradient id="SVGID_24_" gradientUnits="userSpaceOnUse" x1="15.2567" y1="260.8701" x2="341.3317" y2="260.8701" style=""><stop offset="0" style="stop-color: #40B7E9;"></stop><stop offset="0.5045" style="stop-color: #6971B0;"></stop><stop offset="1" style="stop-color: #C93492;"></stop></linearGradient><circle class="st23" cx="99.3" cy="260.9" r="10.9" style="fill: url(#SVGID_24_);"></circle><linearGradient id="SVGID_25_" gradientUnits="userSpaceOnUse" x1="15.2567" y1="240.9666" x2="341.3317" y2="240.9666" style=""><stop offset="0" style="stop-color: #40B7E9;"></stop><stop offset="0.5045" style="stop-color: #6971B0;"></stop><stop offset="1" style="stop-color: #C93492;"></stop></linearGradient><circle class="st24" cx="97.8" cy="241" r="5.4" style="fill: url(#SVGID_25_);"></circle><linearGradient id="SVGID_26_" gradientUnits="userSpaceOnUse" x1="15.2567" y1="205.769" x2="341.3317" y2="205.769" style=""><stop offset="0" style="stop-color: #40B7E9;"></stop><stop offset="0.5045" style="stop-color: #6971B0;"></stop><stop offset="1" style="stop-color: #C93492;"></stop></linearGradient><circle class="st25" cx="78.1" cy="205.8" r="7.1" style="fill: url(#SVGID_26_);"></circle><linearGradient id="SVGID_27_" gradientUnits="userSpaceOnUse" x1="15.2567" y1="173.9235" x2="341.3317" y2="173.9235" style=""><stop offset="0" style="stop-color: #40B7E9;"></stop><stop offset="0.5045" style="stop-color: #6971B0;"></stop><stop offset="1" style="stop-color: #C93492;"></stop></linearGradient><circle class="st26" cx="69.3" cy="173.9" r="8" style="fill: url(#SVGID_27_);"></circle></svg> <svg xmlns="http://www.w3.org/2000/svg" y="336.8527093678358" viewBox="0.42000001668930054 2.049999952316284 309.7200012207031 9.029999732971191" x="156.80162536871075" height="9.029999732971191" width="309.7200012207031" style="overflow: visible;"><g fill="#0f2b74" fill-opacity="1" style=""><path d="M4.69 2.05L4.69 2.05Q6.70 2.05 7.88 3.47L7.88 3.47Q8.90 4.70 8.90 6.56L8.90 6.56Q8.90 8.71 7.58 9.97L7.58 9.97Q6.43 11.08 4.69 11.08L4.69 11.08Q2.65 11.08 1.45 9.66L1.45 9.66Q0.42 8.44 0.42 6.56L0.42 6.56Q0.42 4.42 1.69 3.20L1.69 3.20Q2.92 2.05 4.69 2.05ZM4.68 3.90L4.68 3.90Q3.71 3.90 3.17 4.72L3.17 4.72Q2.70 5.41 2.70 6.55L2.70 6.55Q2.70 7.88 3.30 8.60L3.30 8.60Q3.83 9.23 4.69 9.23L4.69 9.23Q5.60 9.23 6.12 8.51Q6.64 7.80 6.64 6.52L6.64 6.52Q6.64 5.21 6.04 4.51L6.04 4.51Q5.52 3.90 4.68 3.90ZM14.08 10.86L14.08 2.27L17.62 2.27Q19.32 2.27 20.08 2.78L20.08 2.78Q21.25 3.58 21.25 5.18L21.25 5.18Q21.25 6.49 20.36 7.30L20.36 7.30Q19.60 7.99 18.10 7.99L18.10 7.99L16.32 7.99L16.32 10.86L14.08 10.86ZM17.71 4.13L16.32 4.12L16.32 6.23L17.80 6.23Q19.07 6.23 19.07 5.17L19.07 5.17Q19.07 4.14 17.71 4.13L17.71 4.13ZM25.73 2.27L33.08 2.27L33.08 4.20L30.52 4.20L30.52 10.86L28.28 10.86L28.28 4.20L25.73 4.20L25.73 2.27ZM38.05 2.27L40.30 2.27L40.30 10.86L38.05 10.86L38.05 2.27ZM52.27 2.27L55.44 2.27L55.44 10.86L53.32 10.86L53.32 8.93Q53.32 7.07 53.42 4.32L53.42 4.32Q52.97 6.25 52.50 7.73L52.50 7.73L51.50 10.86L49.79 10.86L48.78 7.81Q48.34 6.48 47.84 4.32L47.84 4.32Q47.95 6.77 47.95 8.64L47.95 8.64L47.95 10.86L45.83 10.86L45.83 2.27L49.04 2.27L49.97 5.26Q50.38 6.56 50.66 8.24L50.66 8.24Q51.06 6.32 51.40 5.21L51.40 5.21L52.27 2.27ZM60.97 2.27L63.22 2.27L63.22 10.86L60.97 10.86L60.97 2.27ZM68.51 2.27L75.55 2.27L75.55 4.00L72.24 7.76Q71.96 8.08 71.08 8.99L71.08 8.99Q72.28 8.93 72.86 8.93L72.86 8.93L75.72 8.93L75.72 10.86L68.24 10.86L68.24 9.05L71.72 5.08Q71.98 4.78 72.66 4.18L72.66 4.18L72.41 4.18Q72.04 4.19 71.90 4.19L71.90 4.19Q71.20 4.20 71.08 4.20L71.08 4.20L68.51 4.20L68.51 2.27ZM80.74 2.27L82.98 2.27L82.98 10.86L80.74 10.86L80.74 2.27ZM93.78 2.27L95.96 2.27L95.96 10.86L93.78 10.86L91.46 6.96L90.97 6.08Q90.84 5.87 90.61 5.35L90.61 5.35Q90.70 6.30 90.70 7.54L90.70 7.54L90.70 10.86L88.51 10.86L88.51 2.27L90.78 2.27L92.92 5.90Q93.54 6.98 93.88 7.70L93.88 7.70Q93.78 6.44 93.78 5.48L93.78 5.48L93.78 2.27ZM105.77 6.19L109.38 6.19L109.38 10.86L107.94 10.86Q107.82 10.31 107.82 10.07L107.82 10.07Q107.82 10.04 107.82 10.01L107.82 10.01Q107.82 9.96 107.82 9.92L107.82 9.92Q106.91 11.08 105.24 11.08L105.24 11.08Q103.26 11.08 102.11 9.67L102.11 9.67Q101.11 8.45 101.11 6.59L101.11 6.59Q101.11 4.43 102.48 3.16L102.48 3.16Q103.67 2.05 105.47 2.05L105.47 2.05Q107.10 2.05 108.18 3.04L108.18 3.04Q109.12 3.89 109.25 5.18L109.25 5.18L107.08 5.18Q106.79 3.90 105.43 3.90L105.43 3.90Q104.45 3.90 103.92 4.60Q103.39 5.30 103.39 6.61L103.39 6.61Q103.39 9.23 105.53 9.23L105.53 9.23Q107.10 9.23 107.33 7.79L107.33 7.79L105.77 7.79L105.77 6.19ZM123.20 8.93L127.24 8.93L127.24 10.86L120.96 10.86L120.96 2.27L123.20 2.27L123.20 8.93ZM132.32 2.27L134.57 2.27L134.57 10.86L132.32 10.86L132.32 2.27ZM140.10 2.27L146.45 2.27L146.45 4.12L142.34 4.12L142.34 5.80L145.90 5.80L145.90 7.55L142.34 7.55L142.34 10.86L140.10 10.86L140.10 2.27ZM151.42 2.27L158.29 2.27L158.29 4.12L153.66 4.12L153.66 5.54L157.90 5.54L157.90 7.31L153.66 7.31L153.66 9.01L158.40 9.01L158.40 10.86L151.42 10.86L151.42 2.27ZM169.21 2.27L176.57 2.27L176.57 4.20L174 4.20L174 10.86L171.77 10.86L171.77 4.20L169.21 4.20L169.21 2.27ZM186.70 2.27L188.94 2.27L188.94 10.86L186.70 10.86L186.70 7.31L183.78 7.31L183.78 10.86L181.54 10.86L181.54 2.27L183.78 2.27L183.78 5.38L186.70 5.38L186.70 2.27ZM194.45 10.86L194.45 2.27L198.68 2.27Q199.99 2.27 200.68 2.68L200.68 2.68Q201.84 3.36 201.84 4.75L201.84 4.75Q201.84 5.47 201.48 6.04Q201.12 6.60 200.51 6.85L200.51 6.85Q201.05 7.00 201.37 7.50L201.37 7.50Q201.59 7.84 201.67 8.19Q201.74 8.54 201.85 9.79L201.85 9.79Q201.94 10.58 202.07 10.78L202.07 10.78L202.14 10.86L199.85 10.86Q199.74 10.61 199.60 9.06L199.60 9.06Q199.50 8.28 199.16 7.97Q198.83 7.67 198.07 7.67L198.07 7.67L196.69 7.67L196.69 10.86L194.45 10.86ZM198.25 4.03L196.69 4.03L196.69 6.06L198.28 6.06Q199.63 6.06 199.63 5.03L199.63 5.03Q199.63 4.03 198.25 4.03L198.25 4.03ZM211.32 2.05L211.32 2.05Q213.32 2.05 214.51 3.47L214.51 3.47Q215.53 4.70 215.53 6.56L215.53 6.56Q215.53 8.71 214.21 9.97L214.21 9.97Q213.06 11.08 211.32 11.08L211.32 11.08Q209.28 11.08 208.08 9.66L208.08 9.66Q207.05 8.44 207.05 6.56L207.05 6.56Q207.05 4.42 208.32 3.20L208.32 3.20Q209.54 2.05 211.32 2.05ZM211.31 3.90L211.31 3.90Q210.34 3.90 209.80 4.72L209.80 4.72Q209.33 5.41 209.33 6.55L209.33 6.55Q209.33 7.88 209.93 8.60L209.93 8.60Q210.46 9.23 211.32 9.23L211.32 9.23Q212.23 9.23 212.75 8.51Q213.26 7.80 213.26 6.52L213.26 6.52Q213.26 5.21 212.66 4.51L212.66 4.51Q212.15 3.90 211.31 3.90ZM225.82 2.27L228.05 2.27L228.05 7.38Q228.05 9.10 227.34 9.95L227.34 9.95Q226.40 11.08 224.32 11.08L224.32 11.08Q222.10 11.08 221.16 9.80L221.16 9.80Q220.57 9 220.57 7.36L220.57 7.36L220.57 2.27L222.82 2.27L222.82 7.52Q222.82 8.42 223.18 8.83Q223.55 9.23 224.36 9.23L224.36 9.23Q225.12 9.23 225.47 8.83Q225.82 8.42 225.82 7.52L225.82 7.52L225.82 2.27ZM237.74 6.19L241.36 6.19L241.36 10.86L239.92 10.86Q239.80 10.31 239.80 10.07L239.80 10.07Q239.80 10.04 239.80 10.01L239.80 10.01Q239.80 9.96 239.80 9.92L239.80 9.92Q238.88 11.08 237.22 11.08L237.22 11.08Q235.24 11.08 234.08 9.67L234.08 9.67Q233.09 8.45 233.09 6.59L233.09 6.59Q233.09 4.43 234.46 3.16L234.46 3.16Q235.64 2.05 237.44 2.05L237.44 2.05Q239.08 2.05 240.16 3.04L240.16 3.04Q241.09 3.89 241.22 5.18L241.22 5.18L239.05 5.18Q238.76 3.90 237.41 3.90L237.41 3.90Q236.42 3.90 235.90 4.60Q235.37 5.30 235.37 6.61L235.37 6.61Q235.37 9.23 237.50 9.23L237.50 9.23Q239.08 9.23 239.30 7.79L239.30 7.79L237.74 7.79L237.74 6.19ZM251.93 2.27L254.17 2.27L254.17 10.86L251.93 10.86L251.93 7.31L249.01 7.31L249.01 10.86L246.77 10.86L246.77 2.27L249.01 2.27L249.01 5.38L251.93 5.38L251.93 2.27ZM265.28 2.27L272.64 2.27L272.64 4.20L270.07 4.20L270.07 10.86L267.84 10.86L267.84 4.20L265.28 4.20L265.28 2.27ZM277.61 2.27L284.48 2.27L284.48 4.12L279.85 4.12L279.85 5.54L284.09 5.54L284.09 7.31L279.85 7.31L279.85 9.01L284.59 9.01L284.59 10.86L277.61 10.86L277.61 2.27ZM295.45 7.51L297.70 7.51Q297.61 8.86 296.77 9.83L296.77 9.83Q295.70 11.08 293.72 11.08L293.72 11.08Q291.61 11.08 290.45 9.61L290.45 9.61Q289.45 8.38 289.45 6.55L289.45 6.55Q289.45 4.67 290.59 3.38L290.59 3.38Q291.78 2.05 293.80 2.05L293.80 2.05Q295.48 2.05 296.59 3.10L296.59 3.10Q297.55 4.00 297.64 5.30L297.64 5.30L295.45 5.30Q295.32 4.72 295.04 4.42L295.04 4.42Q294.58 3.90 293.76 3.90L293.76 3.90Q292.75 3.90 292.20 4.70L292.20 4.70Q291.73 5.41 291.73 6.56L291.73 6.56Q291.73 7.90 292.33 8.60L292.33 8.60Q292.86 9.23 293.74 9.23L293.74 9.23Q294.64 9.23 295.10 8.57L295.10 8.57Q295.36 8.21 295.45 7.51L295.45 7.51ZM307.90 2.27L310.14 2.27L310.14 10.86L307.90 10.86L307.90 7.31L304.98 7.31L304.98 10.86L302.74 10.86L302.74 2.27L304.98 2.27L304.98 5.38L307.90 5.38L307.90 2.27Z" transform="translate(0, 0)"></path></g></svg> <svg xmlns="http://www.w3.org/2000/svg" y="301" viewBox="3.430000066757202 -0.7899999618530273 319.57000732421875 26.06999969482422" x="156.80162536871072" height="26.06999969482422" width="319.57000732421875" style="overflow: visible;"><g fill="#341159" fill-opacity="1" style=""><path d="M3.43 24.75L3.43 0.89L6.63 0.89L6.63 21.68L18.74 21.68L18.74 24.75L3.43 24.75ZM22.01 17.79L22.01 17.79Q22.01 15.74 22.98 14.09Q23.96 12.44 25.67 11.48Q27.39 10.53 29.57 10.53L29.57 10.53Q31.81 10.53 33.50 11.48Q35.18 12.44 36.10 14.09Q37.03 15.74 37.03 17.79L37.03 17.79Q37.03 19.83 36.10 21.50Q35.18 23.17 33.48 24.12Q31.78 25.08 29.54 25.08L29.54 25.08Q27.36 25.08 25.66 24.17Q23.96 23.27 22.98 21.63Q22.01 20.00 22.01 17.79ZM25.08 17.82L25.08 17.82Q25.08 19.14 25.67 20.21Q26.27 21.29 27.27 21.91Q28.28 22.54 29.50 22.54L29.50 22.54Q30.79 22.54 31.80 21.91Q32.80 21.29 33.36 20.21Q33.92 19.14 33.92 17.82L33.92 17.82Q33.92 16.50 33.36 15.43Q32.80 14.35 31.80 13.71Q30.79 13.07 29.50 13.07L29.50 13.07Q28.25 13.07 27.24 13.73Q26.23 14.39 25.66 15.46Q25.08 16.53 25.08 17.82ZM42.50 11.15L42.50 5.08L45.57 5.08L45.57 11.15L49.33 11.15L49.33 13.56L45.57 13.56L45.57 24.75L42.50 24.75L42.50 13.56L40.00 13.56L40.00 11.15L42.50 11.15ZM57.35 25.28L57.35 25.28Q55.51 25.28 54.30 24.14Q53.10 23.00 53.03 21.19L53.03 21.19L53.03 11.09L56.10 11.09L56.10 20.10Q56.17 21.22 56.74 21.91Q57.32 22.61 58.57 22.64L58.57 22.64Q59.73 22.64 60.64 21.96Q61.55 21.29 62.11 20.11Q62.67 18.94 62.67 17.46L62.67 17.46L62.67 11.09L65.74 11.09L65.74 24.75L62.93 24.75L62.67 21.38L62.83 21.98Q62.44 22.93 61.63 23.68Q60.82 24.42 59.73 24.85Q58.64 25.28 57.35 25.28ZM74.88 25.01L74.88 25.01Q73.43 25.01 72.06 24.50Q70.69 23.99 69.80 22.97L69.80 22.97L71.08 21.19Q71.94 22.01 72.85 22.42Q73.76 22.84 74.65 22.84L74.65 22.84Q75.31 22.84 75.87 22.67Q76.43 22.51 76.77 22.13Q77.12 21.75 77.12 21.09L77.12 21.09Q77.12 20.36 76.64 19.93Q76.16 19.50 75.42 19.24Q74.68 18.98 73.85 18.74L73.85 18.74Q72.17 18.18 71.28 17.19Q70.39 16.20 70.39 14.78L70.39 14.78Q70.39 13.70 70.93 12.75Q71.48 11.81 72.55 11.22Q73.62 10.63 75.21 10.63L75.21 10.63Q76.63 10.63 77.75 10.97Q78.87 11.32 79.86 12.11L79.86 12.11L78.64 14.03Q78.05 13.40 77.22 13.10Q76.40 12.80 75.73 12.77L75.73 12.77Q75.17 12.74 74.66 12.94Q74.15 13.13 73.82 13.50Q73.49 13.86 73.49 14.35L73.49 14.35Q73.49 15.05 73.95 15.48Q74.42 15.91 75.16 16.15Q75.90 16.40 76.63 16.66L76.63 16.66Q77.65 16.96 78.44 17.46Q79.23 17.95 79.71 18.68Q80.19 19.40 80.19 20.49L80.19 20.49Q80.19 21.71 79.61 22.75Q79.04 23.79 77.86 24.40Q76.69 25.01 74.88 25.01ZM98.77 24.75L95.67 24.75L95.67 0.13L95.70 0.13L108.21 17.89L106.85 17.62L119.33 0.13L119.39 0.13L119.39 24.75L116.23 24.75L116.23 7.39L116.42 9.01L107.42 21.75L107.35 21.75L98.21 9.01L98.77 7.52L98.77 24.75ZM131.83 25.08L131.83 25.08Q129.49 25.08 127.81 24.14Q126.13 23.20 125.22 21.57Q124.31 19.93 124.31 17.82L124.31 17.82Q124.31 15.81 125.33 14.16Q126.36 12.51 128.07 11.52Q129.79 10.53 131.90 10.53L131.90 10.53Q134.61 10.53 136.39 12.11Q138.17 13.70 138.80 16.47L138.80 16.47L127.54 20.43L126.82 18.61L136.06 15.25L135.40 15.67Q135.00 14.59 134.08 13.78Q133.16 12.97 131.67 12.97L131.67 12.97Q130.42 12.97 129.43 13.58Q128.44 14.19 127.88 15.25Q127.31 16.30 127.31 17.66L127.31 17.66Q127.31 19.07 127.91 20.15Q128.50 21.22 129.54 21.83Q130.58 22.44 131.90 22.44L131.90 22.44Q132.79 22.44 133.63 22.11Q134.47 21.78 135.20 21.25L135.20 21.25L136.62 23.53Q135.60 24.22 134.33 24.65Q133.06 25.08 131.83 25.08ZM148.20 25.08L148.20 25.08Q146.32 25.08 144.79 24.17Q143.25 23.27 142.36 21.60Q141.47 19.93 141.47 17.75L141.47 17.75Q141.47 15.48 142.41 13.86Q143.35 12.24 144.97 11.38Q146.59 10.53 148.60 10.53L148.60 10.53Q150.22 10.53 151.68 11.22Q153.15 11.91 153.98 13.13L153.98 13.13L153.85 14.22L153.85-0.79L156.88-0.79L156.88 24.75L153.81 24.75L153.81 21.35L154.14 22.21Q153.19 23.46 151.67 24.27Q150.15 25.08 148.20 25.08ZM149.16 22.47L149.16 22.47Q150.38 22.47 151.34 22.03Q152.29 21.58 152.92 20.79Q153.55 20.00 153.81 18.91L153.81 18.91L153.81 16.34Q153.55 15.34 152.87 14.60Q152.20 13.86 151.26 13.41Q150.31 12.97 149.16 12.97L149.16 12.97Q147.91 12.97 146.87 13.58Q145.83 14.19 145.20 15.25Q144.57 16.30 144.57 17.69L144.57 17.69Q144.57 19.04 145.20 20.11Q145.83 21.19 146.88 21.83Q147.94 22.47 149.16 22.47ZM173.41 24.75L173.41 0.89L176.62 0.89L176.62 24.75L173.41 24.75ZM182.72 11.09L185.46 11.09L185.72 14.42L185.59 13.89Q186.25 12.38 187.74 11.47Q189.22 10.56 191.17 10.56L191.17 10.56Q193.12 10.56 194.35 11.70Q195.59 12.84 195.62 14.65L195.62 14.65L195.62 24.75L192.52 24.75L192.52 15.74Q192.49 14.62 191.88 13.91Q191.27 13.20 189.98 13.20L189.98 13.20Q188.79 13.20 187.84 13.86Q186.88 14.52 186.33 15.67Q185.79 16.83 185.79 18.35L185.79 18.35L185.79 24.75L182.72 24.75L182.72 11.09ZM200.97 11.09L203.71 11.09L203.97 14.42L203.84 13.89Q204.50 12.38 205.99 11.47Q207.47 10.56 209.42 10.56L209.42 10.56Q211.37 10.56 212.60 11.70Q213.84 12.84 213.87 14.65L213.87 14.65L213.87 24.75L210.77 24.75L210.77 15.74Q210.74 14.62 210.13 13.91Q209.52 13.20 208.23 13.20L208.23 13.20Q207.04 13.20 206.09 13.86Q205.13 14.52 204.58 15.67Q204.04 16.83 204.04 18.35L204.04 18.35L204.04 24.75L200.97 24.75L200.97 11.09ZM218.03 17.79L218.03 17.79Q218.03 15.74 219.00 14.09Q219.98 12.44 221.69 11.48Q223.41 10.53 225.59 10.53L225.59 10.53Q227.83 10.53 229.51 11.48Q231.20 12.44 232.12 14.09Q233.05 15.74 233.05 17.79L233.05 17.79Q233.05 19.83 232.12 21.50Q231.20 23.17 229.50 24.12Q227.80 25.08 225.56 25.08L225.56 25.08Q223.38 25.08 221.68 24.17Q219.98 23.27 219.00 21.63Q218.03 20.00 218.03 17.79ZM221.10 17.82L221.10 17.82Q221.10 19.14 221.69 20.21Q222.29 21.29 223.29 21.91Q224.30 22.54 225.52 22.54L225.52 22.54Q226.81 22.54 227.82 21.91Q228.82 21.29 229.38 20.21Q229.94 19.14 229.94 17.82L229.94 17.82Q229.94 16.50 229.38 15.43Q228.82 14.35 227.82 13.71Q226.81 13.07 225.52 13.07L225.52 13.07Q224.27 13.07 223.26 13.73Q222.25 14.39 221.68 15.46Q221.10 16.53 221.10 17.82ZM242.48 25.15L242.32 25.15L234.73 11.09L238.36 11.09L243.51 21.95L241.63 21.88L246.34 11.09L249.78 11.09L242.48 25.15ZM258.23 25.08L258.23 25.08Q256.31 25.08 254.74 24.25Q253.18 23.43 252.27 21.83Q251.36 20.23 251.36 17.92L251.36 17.92Q251.36 15.64 252.32 13.98Q253.28 12.31 254.88 11.42Q256.48 10.53 258.39 10.53L258.39 10.53Q260.30 10.53 261.62 11.40Q262.94 12.28 263.64 13.46L263.64 13.46L263.44 13.99L263.74 11.09L266.57 11.09L266.57 24.75L263.50 24.75L263.50 21.19L263.83 21.98Q263.70 22.31 263.26 22.82Q262.81 23.33 262.07 23.86Q261.33 24.39 260.37 24.73Q259.41 25.08 258.23 25.08ZM259.05 22.54L259.05 22.54Q260.20 22.54 261.13 22.11Q262.05 21.68 262.66 20.91Q263.27 20.13 263.50 19.04L263.50 19.04L263.50 16.37Q263.24 15.38 262.58 14.64Q261.92 13.89 261.00 13.48Q260.07 13.07 258.95 13.07L258.95 13.07Q257.73 13.07 256.71 13.66Q255.68 14.26 255.07 15.31Q254.46 16.37 254.46 17.79L254.46 17.79Q254.46 19.11 255.09 20.20Q255.72 21.29 256.77 21.91Q257.83 22.54 259.05 22.54ZM273.21 11.15L273.21 5.08L276.28 5.08L276.28 11.15L280.04 11.15L280.04 13.56L276.28 13.56L276.28 24.75L273.21 24.75L273.21 13.56L270.70 13.56L270.70 11.15L273.21 11.15ZM283.73 24.75L283.73 11.09L286.80 11.09L286.80 24.75L283.73 24.75ZM283.50 6.14L283.50 6.14Q283.50 5.41 284.08 4.92Q284.66 4.42 285.35 4.42L285.35 4.42Q286.04 4.42 286.59 4.92Q287.13 5.41 287.13 6.14L287.13 6.14Q287.13 6.90 286.59 7.38Q286.04 7.85 285.35 7.85L285.35 7.85Q284.66 7.85 284.08 7.36Q283.50 6.86 283.50 6.14ZM290.93 17.79L290.93 17.79Q290.93 15.74 291.90 14.09Q292.88 12.44 294.59 11.48Q296.31 10.53 298.48 10.53L298.48 10.53Q300.73 10.53 302.41 11.48Q304.09 12.44 305.02 14.09Q305.94 15.74 305.94 17.79L305.94 17.79Q305.94 19.83 305.02 21.50Q304.09 23.17 302.40 24.12Q300.70 25.08 298.45 25.08L298.45 25.08Q296.27 25.08 294.57 24.17Q292.88 23.27 291.90 21.63Q290.93 20.00 290.93 17.79ZM294.00 17.82L294.00 17.82Q294.00 19.14 294.59 20.21Q295.19 21.29 296.19 21.91Q297.20 22.54 298.42 22.54L298.42 22.54Q299.71 22.54 300.71 21.91Q301.72 21.29 302.28 20.21Q302.84 19.14 302.84 17.82L302.84 17.82Q302.84 16.50 302.28 15.43Q301.72 14.35 300.71 13.71Q299.71 13.07 298.42 13.07L298.42 13.07Q297.16 13.07 296.16 13.73Q295.15 14.39 294.57 15.46Q294.00 16.53 294.00 17.82ZM310.10 11.09L312.84 11.09L313.10 14.42L312.97 13.89Q313.63 12.38 315.12 11.47Q316.60 10.56 318.55 10.56L318.55 10.56Q320.50 10.56 321.73 11.70Q322.97 12.84 323.00 14.65L323.00 14.65L323.00 24.75L319.90 24.75L319.90 15.74Q319.87 14.62 319.26 13.91Q318.65 13.20 317.36 13.20L317.36 13.20Q316.17 13.20 315.22 13.86Q314.26 14.52 313.71 15.67Q313.17 16.83 313.17 18.35L313.17 18.35L313.17 24.75L310.10 24.75L310.10 11.09Z" transform="translate(0, 0)"></path></g></svg></svg>